<svg xmlns="http://www.w3.org/2000/svg" width="20" height="20" viewBox="0 0 20 20">
  <g id="home-hero" transform="translate(-150.41 -47.58)">
    <path id="Path_49197" data-name="Path 49197" d="M611.548,159.138a2.539,2.539,0,0,0-2.564-2.564v-4.1a2.057,2.057,0,0,0-2.051-2.051h-4.1v3.359h2.8V161.7h3.359a2.539,2.539,0,0,0,2.564-2.564Z" transform="translate(-441.138 -100.275)" fill="#ea4335"/>
    <path id="Path_49198" data-name="Path 49198" d="M159.138,47.58a2.539,2.539,0,0,0-2.564,2.564h-4.1A2.057,2.057,0,0,0,150.42,52.2V53.5H161.7V50.144a2.539,2.539,0,0,0-2.564-2.564Z" transform="translate(-0.01)" fill="#4285f4"/>
    <path id="Path_49199" data-name="Path 49199" d="M156.274,295.789h-2.506a7.758,7.758,0,0,0,.966-.81,5.959,5.959,0,0,0,0-9.1,7.755,7.755,0,0,0-.966-.81H150.41v2.59a3.23,3.23,0,0,1,2.154.782,2.6,2.6,0,0,1,0,3.975,3.23,3.23,0,0,1-2.154.782v3.9a2.057,2.057,0,0,0,2.051,2.051h3.813v-3.359Z" transform="translate(0 -231.568)" fill="#34a853"/>
    <path id="Path_49200" data-name="Path 49200" d="M393.793,605.625H385.58v3.359h9.52a2.057,2.057,0,0,0,2.051-2.051v-4.1h-3.359v2.8Z" transform="translate(-229.306 -541.403)" fill="#fbbc04"/>
  </g>
</svg>
