<svg xmlns="http://www.w3.org/2000/svg" width="12.176" height="15.497" viewBox="0 0 12.176 15.497">
  <path id="Path_60421" data-name="Path 60421" d="M70.088-30.72a4.135,4.135,0,0,0-3.874,4.339v1.24H65.107A1.179,1.179,0,0,0,64-23.9v7.438a1.179,1.179,0,0,0,1.107,1.24h9.962a1.179,1.179,0,0,0,1.107-1.24V-23.9a1.179,1.179,0,0,0-1.107-1.24H73.962v-1.24a4.137,4.137,0,0,0-3.677-4.294A.5.5,0,0,0,70.088-30.72Zm0,1.24a2.938,2.938,0,0,1,2.767,3.1v1.24H67.321v-1.24A2.938,2.938,0,0,1,70.088-29.48Z" transform="translate(-64 30.72)"/>
</svg>
