<svg id="Group_35026" data-name="Group 35026" xmlns="http://www.w3.org/2000/svg" xmlns:xlink="http://www.w3.org/1999/xlink" width="58.868" height="20" viewBox="0 0 58.868 20">
  <defs>
    <clipPath id="clip-path">
      <rect id="Rectangle_15415" data-name="Rectangle 15415" width="58.868" height="20" transform="translate(0 0)" fill="none"/>
    </clipPath>
  </defs>
  <g id="Group_35014" data-name="Group 35014" transform="translate(0 0)" clip-path="url(#clip-path)">
    <path id="Path_60417" data-name="Path 60417" d="M14.813,0V.495a1,1,0,0,1-.2.579L1.922,18.8H14.7V20H0v-.523a.867.867,0,0,1,.169-.509L12.89,1.2H.368V0Z" transform="translate(0 0)"/>
    <path id="Path_60418" data-name="Path 60418" d="M54.2,0V1.23H47.171V20H45.729V1.23H38.662V0Z" transform="translate(-21.823 0)"/>
    <rect id="Rectangle_15413" data-name="Rectangle 15413" width="8.824" height="1.201" transform="translate(34.398 9.611)"/>
    <rect id="Rectangle_15414" data-name="Rectangle 15414" width="10.237" height="1.202" transform="translate(34.398 0)"/>
    <path id="Path_60419" data-name="Path 60419" d="M112.458,11.35a2.293,2.293,0,0,0-.608-.565,7.956,7.956,0,0,0,2.361-.6A6.065,6.065,0,0,0,116,9.011a4.908,4.908,0,0,0,1.138-1.661,5.378,5.378,0,0,0,.4-2.092,4.674,4.674,0,0,0-1.71-3.922A8.334,8.334,0,0,0,110.649,0h-3.515V1.145h3.515a6.8,6.8,0,0,1,4.07,1.032,3.676,3.676,0,0,1,1.4,3.166,4.467,4.467,0,0,1-.382,1.88,3.937,3.937,0,0,1-1.11,1.428,5.136,5.136,0,0,1-1.781.912,8.229,8.229,0,0,1-2.381.318h-3.331v1.074H109.6a2.15,2.15,0,0,1,.855.128,1.414,1.414,0,0,1,.516.438l6.4,8.113a1.02,1.02,0,0,0,.318.283.832.832,0,0,0,.388.084h1.258Z" transform="translate(-60.474 0)"/>
  </g>
</svg>
